<svg width="64" height="64" viewBox="0 0 64 64" fill="none" xmlns="http://www.w3.org/2000/svg">
<g clip-path="url(#clip0_316_23)">
<path d="M32 64C49.6731 64 64 49.6731 64 32C64 14.3269 49.6731 0 32 0C14.3269 0 0 14.3269 0 32C0 49.6731 14.3269 64 32 64Z" fill="#E0995E"/>
<g opacity="0.2">
<path d="M32 22.8999H31.6H14.5C13.1 22.8999 12 23.9999 12 25.2999V47.4999C12 48.8999 13.1 49.9999 14.5 49.9999H49.5C50.9 49.9999 52 48.8999 52 47.4999V27.7999V25.2999V22.8999H32Z" fill="#231F20"/>
</g>
<path d="M32 20.8999H31.6H14.5C13.1 20.8999 12 21.9999 12 23.2999V45.4999C12 46.8999 13.1 47.9999 14.5 47.9999H49.5C50.9 47.9999 52 46.8999 52 45.4999V25.7999V23.2999V20.8999H32Z" fill="white"/>
<path d="M52 18.5C52 17.1 50.9 16 49.5 16H37C35.6 16 34.5 17.1 34.5 18.5C34.5 18.5 34.2 20.8 32 21H52V18.5Z" fill="#E0E0D1"/>
</g>
<defs>
<clipPath id="clip0_316_23">
<rect width="64" height="64" fill="white"/>
</clipPath>
</defs>
</svg>
